<svg xmlns="http://www.w3.org/2000/svg" version="1.1" width="12.5in" height="10.5in" viewBox = " 0 0 1125 945" >
<!-- Front--> 
<g transform="translate(22.5, 22.5) " > 
<polygon style="stroke:#000000; fill:none; stroke-width:0.9" points="0, 0 38.25000000000001, 0 38.25000000000001, 10.62 76.50000000000001, 10.62 76.50000000000001, 0 103.50000000000001, 0 103.50000000000001, 10.62 130.5, 10.62 130.5, 0 157.5, 0 157.5, 10.62 184.5, 10.62 184.5, 0 211.5, 0 211.5, 10.62 238.5, 10.62 238.5, 0 265.5, 0 265.5, 10.62 292.5, 10.62 292.5, 0 319.5, 0 319.5, 10.62 346.5, 10.62 346.5, 0 373.5, 0 373.5, 10.62 411.75, 10.62 411.75, 0 450, 0 450, 38.25000000000001 439.38, 38.25000000000001 439.38, 76.50000000000001 450, 76.50000000000001 450, 103.50000000000001 439.38, 103.50000000000001 439.38, 130.5 450, 130.5 450, 157.5 439.38, 157.5 439.38, 184.5 450, 184.5 450, 211.5 439.38, 211.5 439.38, 238.5 450, 238.5 450, 265.5 439.38, 265.5 439.38, 292.5 450, 292.5 450, 319.5 439.38, 319.5 439.38, 346.5 450, 346.5 450, 373.5 439.38, 373.5 439.38, 411.75 450, 411.75 450, 450 411.75, 450 411.75, 439.38 373.5, 439.38 373.5, 450 346.5, 450 346.5, 439.38 319.5, 439.38 319.5, 450 292.5, 450 292.5, 439.38 265.5, 439.38 265.5, 450 238.5, 450 238.5, 439.38 211.5, 439.38 211.5, 450 184.5, 450 184.5, 439.38 157.5, 439.38 157.5, 450 130.5, 450 130.5, 439.38 103.50000000000001, 439.38 103.50000000000001, 450 76.50000000000001, 450 76.50000000000001, 439.38 38.25000000000001, 439.38 38.25000000000001, 450 0, 450 0, 411.75 10.62, 411.75 10.62, 373.5 0, 373.5 0, 346.5 10.62, 346.5 10.62, 319.5 0, 319.5 0, 292.5 10.62, 292.5 10.62, 265.5 0, 265.5 0, 238.5 10.62, 238.5 10.62, 211.5 0, 211.5 0, 184.5 10.62, 184.5 10.62, 157.5 0, 157.5 0, 130.5 10.62, 130.5 10.62, 103.50000000000001 0, 103.50000000000001 0, 76.50000000000001 10.62, 76.50000000000001 10.62, 38.25000000000001 0, 38.25000000000001 "/> 
</g>
<!-- Back--> 
<g transform="translate(472.5, 22.5) " > 
<polygon style="stroke:#000000; fill:none; stroke-width:0.9" points="0, 0 38.25000000000001, 0 38.25000000000001, 10.62 76.50000000000001, 10.62 76.50000000000001, 0 103.50000000000001, 0 103.50000000000001, 10.62 130.5, 10.62 130.5, 0 157.5, 0 157.5, 10.62 184.5, 10.62 184.5, 0 211.5, 0 211.5, 10.62 238.5, 10.62 238.5, 0 265.5, 0 265.5, 10.62 292.5, 10.62 292.5, 0 319.5, 0 319.5, 10.62 346.5, 10.62 346.5, 0 373.5, 0 373.5, 10.62 411.75, 10.62 411.75, 0 450, 0 450, 38.25000000000001 439.38, 38.25000000000001 439.38, 76.50000000000001 450, 76.50000000000001 450, 103.50000000000001 439.38, 103.50000000000001 439.38, 130.5 450, 130.5 450, 157.5 439.38, 157.5 439.38, 184.5 450, 184.5 450, 211.5 439.38, 211.5 439.38, 238.5 450, 238.5 450, 265.5 439.38, 265.5 439.38, 292.5 450, 292.5 450, 319.5 439.38, 319.5 439.38, 346.5 450, 346.5 450, 373.5 439.38, 373.5 439.38, 411.75 450, 411.75 450, 450 411.75, 450 411.75, 439.38 373.5, 439.38 373.5, 450 346.5, 450 346.5, 439.38 319.5, 439.38 319.5, 450 292.5, 450 292.5, 439.38 265.5, 439.38 265.5, 450 238.5, 450 238.5, 439.38 211.5, 439.38 211.5, 450 184.5, 450 184.5, 439.38 157.5, 439.38 157.5, 450 130.5, 450 130.5, 439.38 103.50000000000001, 439.38 103.50000000000001, 450 76.50000000000001, 450 76.50000000000001, 439.38 38.25000000000001, 439.38 38.25000000000001, 450 0, 450 0, 411.75 10.62, 411.75 10.62, 373.5 0, 373.5 0, 346.5 10.62, 346.5 10.62, 319.5 0, 319.5 0, 292.5 10.62, 292.5 10.62, 265.5 0, 265.5 0, 238.5 10.62, 238.5 10.62, 211.5 0, 211.5 0, 184.5 10.62, 184.5 10.62, 157.5 0, 157.5 0, 130.5 10.62, 130.5 10.62, 103.50000000000001 0, 103.50000000000001 0, 76.50000000000001 10.62, 76.50000000000001 10.62, 38.25000000000001 0, 38.25000000000001 "/> 
</g>
<!-- Left--> 
<g transform="translate(922.5, 22.5) " > 
<polygon style="stroke:#000000; fill:none; stroke-width:0.9" points="10.62, 0 38.25000000000001, 0 38.25000000000001, 10.62 76.50000000000001, 10.62 76.50000000000001, 0 103.50000000000001, 0 103.50000000000001, 10.62 141.75000000000003, 10.62 141.75000000000003, 0 169.38, 0 169.38, 38.25000000000001 180, 38.25000000000001 180, 76.50000000000001 169.38, 76.50000000000001 169.38, 103.50000000000001 180, 103.50000000000001 180, 130.5 169.38, 130.5 169.38, 157.5 180, 157.5 180, 184.5 169.38, 184.5 169.38, 211.5 180, 211.5 180, 238.5 169.38, 238.5 169.38, 265.5 180, 265.5 180, 292.5 169.38, 292.5 169.38, 319.5 180, 319.5 180, 346.5 169.38, 346.5 169.38, 373.5 180, 373.5 180, 411.75 169.38, 411.75 169.38000000000002, 450 141.75000000000003, 450 141.75000000000003, 439.38 103.50000000000001, 439.38 103.50000000000001, 450 76.50000000000001, 450 76.50000000000001, 439.38 38.25000000000001, 439.38 38.25000000000001, 450 10.62, 450 10.62, 411.75 0, 411.75 0, 373.5 10.62, 373.5 10.62, 346.5 0, 346.5 0, 319.5 10.62, 319.5 10.62, 292.5 0, 292.5 0, 265.5 10.62, 265.5 10.62, 238.5 0, 238.5 0, 211.5 10.62, 211.5 10.62, 184.5 0, 184.5 0, 157.5 10.62, 157.5 10.62, 130.5 0, 130.5 0, 103.50000000000001 10.62, 103.50000000000001 10.62, 76.50000000000001 0, 76.50000000000001 0, 38.25000000000001 10.62, 38.25000000000001 "/> 
</g>
<!-- Right--> 
<g transform="translate(922.5, 472.5) " > 
<polygon style="stroke:#000000; fill:none; stroke-width:0.9" points="10.62, 0 38.25000000000001, 0 38.25000000000001, 10.62 76.50000000000001, 10.62 76.50000000000001, 0 103.50000000000001, 0 103.50000000000001, 10.62 141.75000000000003, 10.62 141.75000000000003, 0 169.38, 0 169.38, 38.25000000000001 180, 38.25000000000001 180, 76.50000000000001 169.38, 76.50000000000001 169.38, 103.50000000000001 180, 103.50000000000001 180, 130.5 169.38, 130.5 169.38, 157.5 180, 157.5 180, 184.5 169.38, 184.5 169.38, 211.5 180, 211.5 180, 238.5 169.38, 238.5 169.38, 265.5 180, 265.5 180, 292.5 169.38, 292.5 169.38, 319.5 180, 319.5 180, 346.5 169.38, 346.5 169.38, 373.5 180, 373.5 180, 411.75 169.38, 411.75 169.38000000000002, 450 141.75000000000003, 450 141.75000000000003, 439.38 103.50000000000001, 439.38 103.50000000000001, 450 76.50000000000001, 450 76.50000000000001, 439.38 38.25000000000001, 439.38 38.25000000000001, 450 10.62, 450 10.62, 411.75 0, 411.75 0, 373.5 10.62, 373.5 10.62, 346.5 0, 346.5 0, 319.5 10.62, 319.5 10.62, 292.5 0, 292.5 0, 265.5 10.62, 265.5 10.62, 238.5 0, 238.5 0, 211.5 10.62, 211.5 10.62, 184.5 0, 184.5 0, 157.5 10.62, 157.5 10.62, 130.5 0, 130.5 0, 103.50000000000001 10.62, 103.50000000000001 10.62, 76.50000000000001 0, 76.50000000000001 0, 38.25000000000001 10.62, 38.25000000000001 "/> 
</g>
<!-- Top--> 
<g transform="translate(22.5, 472.5) " > 
<polygon style="stroke:#000000; fill:none; stroke-width:0.9" points="10.62, 10.62 38.25000000000001, 10.62 38.25000000000001, 0 76.50000000000001, 0 76.50000000000001, 10.62 103.50000000000001, 10.62 103.50000000000001, 0 130.5, 0 130.5, 10.62 157.5, 10.62 157.5, 0 184.5, 0 184.5, 10.62 211.5, 10.62 211.5, 0 238.5, 0 238.5, 10.62 265.5, 10.62 265.5, 0 292.5, 0 292.5, 10.62 319.5, 10.62 319.5, 0 346.5, 0 346.5, 10.62 373.5, 10.62 373.5, 0 411.75, 0 411.75, 10.62 439.38, 10.62 439.38, 38.25000000000001 450, 38.25000000000001 450, 76.50000000000001 439.38, 76.50000000000001 439.38, 103.50000000000001 450, 103.50000000000001 450, 141.75000000000003 439.38, 141.75000000000003 439.38, 169.38 411.75, 169.38 411.75, 180 373.5, 180 373.5, 169.38 346.5, 169.38 346.5, 180 319.5, 180 319.5, 169.38 292.5, 169.38 292.5, 180 265.5, 180 265.5, 169.38 238.5, 169.38 238.5, 180 211.5, 180 211.5, 169.38 184.5, 169.38 184.5, 180 157.5, 180 157.5, 169.38 130.5, 169.38 130.5, 180 103.50000000000001, 180 103.50000000000001, 169.38 76.50000000000001, 169.38 76.50000000000001, 180 38.25000000000001, 180 38.25000000000001, 169.38 10.62, 169.38000000000002 10.62, 141.75000000000003 0, 141.75000000000003 0, 103.50000000000001 10.62, 103.50000000000001 10.62, 76.50000000000001 0, 76.50000000000001 0, 38.25000000000001 10.62, 38.25000000000001 "/> 
</g>
<!-- Bottom--> 
<g transform="translate(472.5, 472.5) " > 
<polygon style="stroke:#000000; fill:none; stroke-width:0.9" points="10.62, 10.62 38.25000000000001, 10.62 38.25000000000001, 0 76.50000000000001, 0 76.50000000000001, 10.62 103.50000000000001, 10.62 103.50000000000001, 0 130.5, 0 130.5, 10.62 157.5, 10.62 157.5, 0 184.5, 0 184.5, 10.62 211.5, 10.62 211.5, 0 238.5, 0 238.5, 10.62 265.5, 10.62 265.5, 0 292.5, 0 292.5, 10.62 319.5, 10.62 319.5, 0 346.5, 0 346.5, 10.62 373.5, 10.62 373.5, 0 411.75, 0 411.75, 10.62 439.38, 10.62 439.38, 38.25000000000001 450, 38.25000000000001 450, 76.50000000000001 439.38, 76.50000000000001 439.38, 103.50000000000001 450, 103.50000000000001 450, 141.75000000000003 439.38, 141.75000000000003 439.38, 169.38 411.75, 169.38 411.75, 180 373.5, 180 373.5, 169.38 346.5, 169.38 346.5, 180 319.5, 180 319.5, 169.38 292.5, 169.38 292.5, 180 265.5, 180 265.5, 169.38 238.5, 169.38 238.5, 180 211.5, 180 211.5, 169.38 184.5, 169.38 184.5, 180 157.5, 180 157.5, 169.38 130.5, 169.38 130.5, 180 103.50000000000001, 180 103.50000000000001, 169.38 76.50000000000001, 169.38 76.50000000000001, 180 38.25000000000001, 180 38.25000000000001, 169.38 10.62, 169.38000000000002 10.62, 141.75000000000003 0, 141.75000000000003 0, 103.50000000000001 10.62, 103.50000000000001 10.62, 76.50000000000001 0, 76.50000000000001 0, 38.25000000000001 10.62, 38.25000000000001 "/> 
</g></svg>